<svg width="82" height="115" viewBox="0 0 82 115" fill="none" xmlns="http://www.w3.org/2000/svg">
<path d="M53.71 77.23C51.42 78.76 49.08 79.06 46.81 77.3C44.55 75.55 44.34 73.17 45.21 70.24C42.25 70.88 39.58 70.86 37.82 68.22C36.32 65.96 36.68 63.74 38.16 61.61C38.34 61.43 38.53 61.25 38.71 61.07C39.77 60.31 41 59.57 42.23 59.82C44.48 60.27 44.07 59.23 44.19 57.64C44.36 55.45 44.12 54.55 41.67 54.9C40.78 55.03 39.7501 54.23 38.7801 53.86C38.5201 53.6 38.26 53.34 38 53.08C36.7 50.9 36.3 48.67 37.88 46.47C39.63 44.02 42.11 43.81 45.15 44.63C44.38 41.63 44.49 39 47.13 37.26C49.38 35.77 51.6 36.15 53.72 37.62C53.9 37.8 54.08 37.99 54.26 38.17C54.69 39.23 55.63 40.38 55.47 41.35C55.03 43.95 56.27 43.48 58.07 43.63C60.24 43.81 60.42 43.22 60.36 41.37C60.33 40.32 61.15 39.25 61.59 38.19C61.78 37.99 61.97 37.8 62.16 37.6C64.43 36 66.77 35.73 69.05 37.47C71.32 39.2 71.59 41.57 70.71 44.48C73.6 43.98 76.3 43.86 78.06 46.52C79.56 48.78 79.22 50.99 77.79 53.15C77.57 53.37 77.35 53.58 77.13 53.8C76.05 54.22 74.92 55.09 73.91 54.97C71.71 54.72 71.73 55.5 71.76 57.37C71.79 59.18 71.68 60.05 73.91 59.8C74.93 59.69 76.05 60.56 77.13 60.98C77.35 61.2 77.58 61.42 77.8 61.65C79.32 63.92 79.62 66.26 77.87 68.52C76.14 70.76 73.8 71.12 70.87 70.16C71.47 73.18 71.37 75.94 68.57 77.68C66.43 79.01 64.3 78.65 62.26 77.34C61.98 77.06 61.71 76.79 61.43 76.51C60.35 74.91 60.07 73.13 60.37 71.27C57.3 70.92 54.75 71.01 55.06 75.08C55.1 75.57 54.5601 76.1 54.2801 76.61C54.1101 76.82 53.91 77.03 53.71 77.23ZM68.42 67.86C66.66 66.79 70.36 63.43 66.43 63.42C64.42 63.41 63.96 64.1 63.97 65.95C64 69.84 67.31 66.16 68.42 67.86ZM47.57 67.91C48.65 66.43 52.58 69.93 51.9 65.14C51.36 61.33 48.93 64.3301 47.6 63.3501C48.14 64.9301 47.56 66.26 47.57 67.91ZM68.55 47C63.9 47.48 64.01 47.5 63.88 48.58C63.42 52.33 66.25 51.05 68.46 51.64C67.8 49.9 68.31 48.48 68.55 47ZM47.5301 46.8C47.7901 48.49 47.95 49.95 47.69 51.58C48.97 50.43 51.54 53.27 51.98 49.49C52.51 44.82 48.5701 48.53 47.5301 46.8ZM56.16 57.11C56.24 58.11 55.49 59.52 57.52 59.13C58.55 58.93 59.88 59.66 59.7 57.52C59.58 56.07 59.51 55.5 57.84 55.61C56.59 55.68 55.69 55.56 56.16 57.11Z" fill="#46AF4D" fill-opacity="0.3"/>
<path d="M54.27 38.18C54.09 38 53.91 37.81 53.73 37.63C53.7 37.4 53.73 37.14 53.64 36.94C52.46 34.33 52.42 31.86 54.84 29.96C56.81 28.41 59.03 28.4 61.02 29.94C63.46 31.83 63.42 34.3 62.27 36.91C62.18 37.12 62.2 37.37 62.17 37.6C61.98 37.8 61.79 37.99 61.6 38.19C59.15 39.18 56.71 39.15 54.27 38.18Z" fill="#46AF4D" fill-opacity="0.3"/>
<path d="M77.82 61.6501C77.6 61.4301 77.37 61.21 77.15 60.98C76.12 58.59 76.14 56.19 77.15 53.8C77.37 53.58 77.59 53.3701 77.81 53.1501C78.59 52.9101 79.35 52.61 80.15 52.45C82.41 52.02 84.36 52.57 85.66 54.58C86.85 56.42 86.85 58.35 85.67 60.19C84.38 62.21 82.43 62.76 80.17 62.33C79.36 62.19 78.6 61.8901 77.82 61.6501Z" fill="#46AF4D" fill-opacity="0.3"/>
<path d="M61.46 76.51C61.74 76.79 62.01 77.07 62.29 77.34C62.44 77.9 62.59 78.46 62.74 79.03C63.37 81.42 62.99 83.55 60.87 85.02C58.92 86.37 56.83 86.34 54.91 84.94C52.83 83.42 52.5 81.2801 53.19 78.9101C53.35 78.3501 53.53 77.79 53.7 77.23C53.9 77.02 54.1 76.82 54.31 76.61C56.68 75.61 59.06 75.64 61.46 76.51Z" fill="#46AF4D" fill-opacity="0.3"/>
<path d="M38.7201 61.08C38.5401 61.26 38.3501 61.44 38.1701 61.62C35.3101 62.53 32.4401 63.35 30.3101 60.27C29.0701 58.48 29.0401 56.52 30.2301 54.68C32.2601 51.53 35.1402 52.2301 38.0302 53.1001C38.2902 53.3601 38.5501 53.62 38.8101 53.88C39.7401 56.28 39.6501 58.68 38.7201 61.08Z" fill="#46AF4D" fill-opacity="0.3"/>
<path d="M86.2999 72.95C86.3599 75.6 83.9699 77.99 81.3199 77.94C78.8099 77.89 76.5599 75.65 76.5099 73.14C76.4499 70.48 78.8299 68.1 81.4899 68.16C83.9999 68.2 86.2399 70.43 86.2999 72.95Z" fill="#46AF4D" fill-opacity="0.3"/>
<path d="M34.5199 77.89C31.8999 77.92 29.5399 75.52 29.6299 72.91C29.7099 70.41 31.9399 68.22 34.4399 68.19C37.0599 68.16 39.4099 70.56 39.3299 73.17C39.2499 75.67 37.0199 77.87 34.5199 77.89Z" fill="#46AF4D" fill-opacity="0.3"/>
<path d="M47.1701 80.69C47.2701 83.31 44.9401 85.73 42.3001 85.73C39.8101 85.73 37.5401 83.54 37.4401 81.04C37.3401 78.42 39.6801 76 42.3101 76C44.8001 76 47.0701 78.18 47.1701 80.69Z" fill="#46AF4D" fill-opacity="0.3"/>
<path d="M81.13 46.64C78.48 46.47 76.28 43.92 76.54 41.32C76.8 38.8 79.19 36.73 81.67 36.89C84.32 37.06 86.53 39.61 86.26 42.21C86 44.73 83.61 46.79 81.13 46.64Z" fill="#46AF4D" fill-opacity="0.3"/>
<path d="M34.3099 36.91C36.7799 36.81 39.1199 38.91 39.3199 41.42C39.5299 44.01 37.2899 46.51 34.6499 46.62C32.0399 46.72 29.6299 44.39 29.6299 41.76C29.6299 39.27 31.8099 37.01 34.3099 36.91Z" fill="#46AF4D" fill-opacity="0.3"/>
<path d="M78.46 33.96C78.45 36.61 76.02 38.94 73.38 38.82C70.86 38.7 68.69 36.43 68.7 33.92C68.71 31.27 71.15 28.94 73.78 29.06C76.3 29.18 78.47 31.46 78.46 33.96Z" fill="#46AF4D" fill-opacity="0.3"/>
<path d="M42.32 29.09C44.95 29.1 47.27 31.53 47.15 34.14C47.03 36.64 44.77 38.81 42.28 38.79C39.65 38.78 37.33 36.35 37.45 33.74C37.57 31.24 39.84 29.08 42.32 29.09Z" fill="#46AF4D" fill-opacity="0.3"/>
<path d="M78.46 80.8C78.5 83.44 76.1 85.81 73.46 85.74C70.95 85.67 68.73 83.43 68.7 80.92C68.66 78.27 71.05 75.91 73.7 75.98C76.22 76.05 78.43 78.29 78.46 80.8Z" fill="#46AF4D" fill-opacity="0.3"/>
<path d="M45.6001 88.4C45.9901 85.65 47.5501 84.17 50.3201 84.2C52.9701 84.23 54.9101 86.48 54.5701 89.14C54.2201 91.92 52.4801 93.32 49.7401 93.12C46.9401 92.93 45.6801 91.11 45.6001 88.4Z" fill="#46AF4D" fill-opacity="0.3"/>
<path d="M31.15 65.17C30.94 67.93 29.54 69.62 26.71 69.64C23.91 69.66 22.2699 68.08 22.2399 65.27C22.2099 62.47 23.7999 60.84 26.6099 60.79C29.4299 60.76 30.88 62.41 31.15 65.17Z" fill="#46AF4D" fill-opacity="0.3"/>
<path d="M70.31 88.63C70.11 91.36 68.71 93.08 65.91 93.16C63.14 93.24 61.49 91.69 61.25 88.92C61.02 86.26 63.11 84.08 65.78 84.17C68.58 84.28 70.03 85.87 70.31 88.63Z" fill="#46AF4D" fill-opacity="0.3"/>
<path d="M26.8401 45.09C29.5901 45.43 31.1901 46.95 31.0801 49.75C30.9701 52.56 29.2701 54.09 26.4901 54C23.6801 53.9 22.1501 52.2 22.2401 49.41C22.3301 46.58 24.0801 45.24 26.8401 45.09Z" fill="#46AF4D" fill-opacity="0.3"/>
<path d="M54.6401 26.01C54.3501 28.95 52.8801 30.6 50.0601 30.55C47.2501 30.5 45.6501 28.85 45.6801 26.05C45.7201 23.24 47.3701 21.65 50.1801 21.67C53.0401 21.69 54.3801 23.45 54.6401 26.01Z" fill="#46AF4D" fill-opacity="0.3"/>
<path d="M70.2898 26.17C70.0298 28.92 68.5798 30.5 65.7898 30.6C63.1298 30.69 61.0699 28.55 61.2799 25.89C61.5099 23.12 63.1399 21.59 65.8999 21.66C68.6999 21.73 70.0898 23.44 70.2898 26.17Z" fill="#46AF4D" fill-opacity="0.3"/>
<path d="M34.5999 92.8C32.1399 92.52 30.4999 91.23 30.4499 88.77C30.3999 86.31 31.9499 84.72 34.3899 84.66C36.8499 84.6 38.4399 86.15 38.5099 88.6C38.5799 91.06 36.9699 92.39 34.5999 92.8Z" fill="#46AF4D" fill-opacity="0.3"/>
<path d="M58.0101 100.64C55.5901 100.36 53.9401 99.0601 53.8901 96.5901C53.8401 94.1201 55.4 92.51 57.85 92.45C60.32 92.39 61.9201 93.9501 61.9901 96.4101C62.0601 98.9001 60.4501 100.24 58.0101 100.64Z" fill="#46AF4D" fill-opacity="0.3"/>
<path d="M22.9501 57.37C22.5501 59.9 21.21 61.4801 18.75 61.4101C16.31 61.3401 14.7701 59.75 14.8301 57.31C14.8901 54.87 16.48 53.34 18.93 53.39C21.4 53.44 22.6301 55.11 22.9501 57.37Z" fill="#46AF4D" fill-opacity="0.3"/>
<path d="M57.8799 14.19C60.2899 14.47 61.9198 15.76 61.9698 18.23C62.0098 20.69 60.4699 22.28 58.0199 22.33C55.5599 22.38 53.9698 20.83 53.9098 18.38C53.8498 15.91 55.4499 14.57 57.8799 14.19Z" fill="#46AF4D" fill-opacity="0.3"/>
<path d="M38.57 26.06C38.3 28.45 37.02 30.08 34.57 30.13C32.12 30.18 30.53 28.64 30.48 26.21C30.42 23.77 31.96 22.18 34.4 22.11C36.85 22.05 38.19 23.63 38.57 26.06Z" fill="#46AF4D" fill-opacity="0.3"/>
<path d="M85.5401 88.76C85.1401 91.2 83.7901 92.81 81.3101 92.74C78.8601 92.67 77.29 91.07 77.35 88.6C77.41 86.15 79.0201 84.59 81.4901 84.64C83.9701 84.69 85.2601 86.34 85.5401 88.76Z" fill="#46AF4D" fill-opacity="0.3"/>
<path d="M81.3401 21.98C83.7601 22.27 85.4101 23.56 85.4601 26.03C85.5101 28.5 83.95 30.11 81.49 30.16C79.02 30.22 77.42 28.65 77.35 26.2C77.29 23.72 78.9001 22.38 81.3401 21.98Z" fill="#46AF4D" fill-opacity="0.3"/>
<path d="M26.6201 76.76C29.1501 77.15 30.7301 78.49 30.6701 80.95C30.6101 83.39 29.0202 84.93 26.5802 84.87C24.1502 84.82 22.6102 83.23 22.6502 80.78C22.6902 78.31 24.3601 77.08 26.6201 76.76Z" fill="#46AF4D" fill-opacity="0.3"/>
<path d="M30.7599 33.82C30.4799 36.27 29.1999 37.9 26.7499 37.95C24.2999 38 22.7099 36.46 22.6599 34.03C22.5999 31.58 24.1499 30 26.5799 29.94C29.0399 29.87 30.3599 31.47 30.7599 33.82Z" fill="#46AF4D" fill-opacity="0.3"/>
<path d="M18.6901 76.76C16.3301 76.49 15.0401 75.18 15.1701 72.8C15.3101 70.39 16.8101 69.21 19.1601 69.37C21.3701 69.52 22.5601 70.89 22.5201 73.1C22.4701 75.52 21.0401 76.65 18.6901 76.76Z" fill="#46AF4D" fill-opacity="0.3"/>
<path d="M73.58 14.56C75.95 14.74 77.33 15.98 77.27 18.39C77.22 20.81 75.79 22.07 73.41 22C71.19 21.93 69.92 20.62 69.89 18.4C69.85 15.98 71.21 14.74 73.58 14.56Z" fill="#46AF4D" fill-opacity="0.3"/>
<path d="M19.08 45.49C16.57 45.34 15.1599 44.17 15.1599 41.76C15.1699 39.36 16.5299 38.06 18.9199 38.08C21.1299 38.1 22.4199 39.36 22.5099 41.58C22.6199 44 21.26 45.21 19.08 45.49Z" fill="#46AF4D" fill-opacity="0.3"/>
<path d="M77.3598 96.5C77.0798 99.04 75.7398 100.34 73.3498 100.21C70.9198 100.07 69.7199 98.55 69.8799 96.18C70.0299 93.95 71.4199 92.75 73.6399 92.78C76.0999 92.82 77.1898 94.32 77.3598 96.5Z" fill="#46AF4D" fill-opacity="0.3"/>
<path d="M42.43 100.26C39.9 100.04 38.54 98.79 38.62 96.38C38.69 93.96 40.1401 92.72 42.5201 92.81C44.7401 92.9 45.9801 94.22 46.0101 96.45C46.0401 98.9 44.6 100.04 42.43 100.26Z" fill="#46AF4D" fill-opacity="0.3"/>
<path d="M46.0201 18.45C45.7501 20.81 44.4401 22.1 42.0601 21.97C39.6501 21.83 38.4701 20.33 38.6301 17.98C38.7801 15.77 40.1501 14.58 42.3601 14.62C44.7801 14.67 45.9101 16.1 46.0201 18.45Z" fill="#46AF4D" fill-opacity="0.3"/>
<path d="M11.03 68.49C9.03004 68.28 7.75 67.18 7.8 65.11C7.84 63.22 9.06002 62.01 10.95 62C13.02 61.99 14.28 63.26 14.23 65.33C14.2 67.22 12.97 68.27 11.03 68.49Z" fill="#46AF4D" fill-opacity="0.3"/>
<path d="M65.66 7.17001C67.48 7.29001 68.81 8.23 68.99 10.13C69.19 12.22 67.98 13.6 65.93 13.71C63.86 13.82 62.54 12.54 62.51 10.46C62.49 8.57002 63.71 7.48001 65.66 7.17001Z" fill="#46AF4D" fill-opacity="0.3"/>
<path d="M10.9301 46.31C12.7301 46.42 14.04 47.34 14.22 49.24C14.41 51.31 13.2301 52.68 11.1901 52.79C9.13007 52.9 7.83005 51.64 7.80005 49.57C7.78005 47.68 8.97006 46.6 10.9301 46.31Z" fill="#46AF4D" fill-opacity="0.3"/>
<path d="M53.4698 104.25C53.2598 106.23 52.1999 107.59 50.1499 107.6C48.1099 107.61 46.8299 106.31 46.8399 104.26C46.8399 102.38 48.0699 101.14 49.9199 101.04C51.9699 100.93 53.1198 102.2 53.4698 104.25Z" fill="#46AF4D" fill-opacity="0.3"/>
<path d="M53.4301 10.42C53.2801 12.26 52.3001 13.57 50.4101 13.72C48.3301 13.88 46.9601 12.65 46.8801 10.59C46.8101 8.51999 48.1101 7.22001 50.1901 7.23001C52.0901 7.24001 53.1501 8.48001 53.4301 10.42Z" fill="#46AF4D" fill-opacity="0.3"/>
<path d="M65.7699 107.67C63.7599 107.41 62.4299 106.3 62.4799 104.26C62.5299 102.23 63.8699 100.97 65.9099 101.05C67.7699 101.12 68.9999 102.36 69.0399 104.23C69.0899 106.27 67.7999 107.38 65.7699 107.67Z" fill="#46AF4D" fill-opacity="0.3"/>
<path d="M29.6 18.37C29.42 20.14 28.5001 21.21 26.6901 21.2C24.7001 21.19 23.6601 20.02 23.7801 18.07C23.8901 16.28 25.0301 15.33 26.8201 15.41C28.6201 15.48 29.49 16.59 29.6 18.37Z" fill="#46AF4D" fill-opacity="0.3"/>
<path d="M18.9499 85.73C20.7299 85.93 21.7799 86.88 21.7499 88.7C21.7099 90.72 20.5099 91.73 18.5499 91.59C16.7399 91.46 15.8099 90.29 15.9099 88.49C16.0299 86.66 17.1599 85.81 18.9499 85.73Z" fill="#46AF4D" fill-opacity="0.3"/>
<path d="M84.19 10.38C84.04 12 83.19 13.12 81.58 13.2C79.78 13.29 78.6499 12.2 78.6699 10.4C78.6899 8.78003 79.76 7.76 81.38 7.75C83.03 7.73 83.91 8.80001 84.19 10.38Z" fill="#46AF4D" fill-opacity="0.3"/>
<path d="M37.2499 10.49C37.0099 12.07 36.1599 13.17 34.5499 13.18C32.7799 13.19 31.67 12.06 31.78 10.29C31.87 8.72001 32.9599 7.70002 34.5799 7.77002C36.1899 7.83002 37.0299 8.91002 37.2499 10.49Z" fill="#46AF4D" fill-opacity="0.3"/>
<path d="M26.65 93.55C28.44 93.68 29.55 94.58 29.57 96.41C29.6 98.41 28.48 99.49 26.49 99.42C24.67 99.35 23.7 98.24 23.74 96.43C23.78 94.6 24.86 93.69 26.65 93.55Z" fill="#46AF4D" fill-opacity="0.3"/>
<path d="M10.8101 78.08C12.5401 78.27 13.6501 79.11 13.7201 80.71C13.7901 82.48 12.6901 83.61 10.9201 83.57C9.33011 83.54 8.32012 82.46 8.31012 80.85C8.30012 79.21 9.43012 78.42 10.8101 78.08Z" fill="#46AF4D" fill-opacity="0.3"/>
<path d="M18.95 29.08C16.99 28.87 15.92 27.94 15.94 26.13C15.96 24.14 17.14 23.11 19.09 23.23C20.88 23.35 21.81 24.49 21.74 26.28C21.66 28.12 20.48 28.91 18.95 29.08Z" fill="#46AF4D" fill-opacity="0.3"/>
<path d="M37.2701 104.43C36.9801 106.01 36.1001 107.07 34.4601 107.05C32.8401 107.03 31.7701 106 31.7601 104.38C31.7501 102.58 32.8801 101.49 34.6801 101.59C36.2801 101.69 37.1301 102.82 37.2701 104.43Z" fill="#46AF4D" fill-opacity="0.3"/>
<path d="M81.2201 101.48C83.1001 101.75 84.2301 102.66 84.1501 104.46C84.0801 106.05 83.0401 107.08 81.4401 107.07C79.6701 107.06 78.6001 105.96 78.6501 104.18C78.6901 102.56 79.8501 101.79 81.2201 101.48Z" fill="#46AF4D" fill-opacity="0.3"/>
<path d="M13.7601 34.02C13.4601 35.62 12.5601 36.69 10.9201 36.62C9.31007 36.55 8.2701 35.48 8.3301 33.85C8.3901 32.24 9.47006 31.2 11.1001 31.26C12.7401 31.32 13.5801 32.42 13.7601 34.02Z" fill="#46AF4D" fill-opacity="0.3"/>
<path d="M75.7299 111.87C75.6799 113.3 75.0499 114.13 73.8399 114.24C72.4599 114.37 71.5399 113.64 71.4899 112.22C71.4399 110.81 72.2799 110.02 73.6899 110.04C74.9499 110.06 75.5099 110.91 75.7299 111.87Z" fill="#46AF4D" fill-opacity="0.3"/>
<path d="M55.54 112.19C55.76 110.5 56.6501 109.68 58.1501 109.8C59.6801 109.93 60.4401 110.96 60.2801 112.45C60.1401 113.77 59.2501 114.54 57.9001 114.51C56.3501 114.46 55.67 113.48 55.54 112.19Z" fill="#46AF4D" fill-opacity="0.3"/>
<path d="M44.42 112.13C44.27 113.46 43.56 114.29 42.17 114.23C40.97 114.17 40.22 113.4 40.22 112.19C40.22 110.81 41.05 110.01 42.43 110.07C43.64 110.11 44.27 110.91 44.42 112.13Z" fill="#46AF4D" fill-opacity="0.3"/>
<path d="M44.4001 2.67C44.2401 3.87 43.5901 4.69 42.3701 4.7C40.9701 4.71 40.1501 3.84 40.2601 2.45C40.3501 1.26 41.18 0.519985 42.41 0.589985C43.63 0.669985 44.2601 1.47 44.4001 2.67Z" fill="#46AF4D" fill-opacity="0.3"/>
<path d="M60.29 2.66C60.09 4.35 59.15 5.11002 57.64 4.96002C56.27 4.82002 55.54 3.89999 55.63 2.52999C55.73 0.939994 56.73 0.210001 58.25 0.350001C59.63 0.480001 60.25 1.43 60.29 2.66Z" fill="#46AF4D" fill-opacity="0.3"/>
<path d="M75.73 2.58003C75.48 4.08003 74.7001 4.88002 73.3301 4.73002C72.1601 4.60002 71.42 3.80003 71.5 2.58003C71.59 1.20003 72.4701 0.450027 73.8301 0.580027C75.0401 0.690027 75.58 1.58003 75.73 2.58003Z" fill="#46AF4D" fill-opacity="0.3"/>
<path d="M5.29992 41.76C5.14992 42.96 4.50991 43.79 3.28991 43.81C1.88991 43.84 1.05996 42.98 1.14996 41.59C1.22996 40.4 2.03996 39.65 3.27996 39.71C4.50996 39.76 5.13992 40.56 5.29992 41.76Z" fill="#46AF4D" fill-opacity="0.3"/>
<path d="M5.51003 57.41C5.41003 58.88 4.62003 59.74 3.07003 59.68C1.70003 59.63 0.919996 58.81 0.909996 57.45C0.899996 55.9 1.78003 55.07 3.32003 55.12C4.70003 55.16 5.40003 56 5.51003 57.41Z" fill="#46AF4D" fill-opacity="0.3"/>
<path d="M5.3001 73.09C5.1101 74.29 4.4601 75.1 3.2401 75.09C1.8401 75.08 1.03009 74.2 1.16009 72.81C1.28009 71.63 2.11009 70.89 3.35009 70.98C4.55009 71.08 5.1901 71.88 5.3001 73.09Z" fill="#46AF4D" fill-opacity="0.3"/>
</svg>
